<?xml version="1.0" encoding="utf-8"?>
<!-- Generator: Adobe Illustrator 16.0.0, SVG Export Plug-In . SVG Version: 6.00 Build 0)  -->
<!DOCTYPE svg PUBLIC "-//W3C//DTD SVG 1.1//EN" "http://www.w3.org/Graphics/SVG/1.1/DTD/svg11.dtd">
<svg version="1.1" id="Layer_4" xmlns="http://www.w3.org/2000/svg" xmlns:xlink="http://www.w3.org/1999/xlink" x="0px" y="0px"
	 width="309px" height="283.535px" viewBox="0 0 309 283.535" enable-background="new 0 0 309 283.535" xml:space="preserve">
<g>
	<linearGradient id="SVGID_1_" gradientUnits="userSpaceOnUse" x1="8.2319" y1="141.7676" x2="291.7677" y2="141.7676">
		<stop  offset="0" style="stop-color:#39CBFF"/>
		<stop  offset="1" style="stop-color:#F2CBE0"/>
	</linearGradient>
	<path fill="url(#SVGID_1_)" d="M203.271,273.656c-7.778,7.778-22.836,11.813-33.461,8.966L62.416,253.847
		c-10.625-2.848-21.647-13.87-24.494-24.495L9.145,121.957c-2.846-10.625,1.188-25.683,8.967-33.461L96.729,9.879
		c7.779-7.778,22.836-11.813,33.461-8.966l107.393,28.775c10.625,2.848,21.648,13.87,24.495,24.495l28.776,107.395
		c2.848,10.625-1.187,25.683-8.965,33.461L203.271,273.656z"/>
	<g>
		<linearGradient id="SVGID_2_" gradientUnits="userSpaceOnUse" x1="25" y1="102.7676" x2="271" y2="102.7676">
			<stop  offset="0" style="stop-color:#F2CBE0"/>
			<stop  offset="1" style="stop-color:#17ABFE"/>
		</linearGradient>
		<polygon fill="url(#SVGID_2_)" points="27,166.768 25,166.768 25,38.768 271,38.768 271,125.427 269,125.427 269,40.768 
			27,40.768 		"/>
	</g>
	<g>
		<rect x="38.908" y="77.872" fill="#F3F3F3" width="176.092" height="122.372"/>
		<g>
			<linearGradient id="SVGID_3_" gradientUnits="userSpaceOnUse" x1="50.02" y1="122.2676" x2="50.02" y2="81.2041">
				<stop  offset="0" style="stop-color:#EA456B"/>
				<stop  offset="1" style="stop-color:#F2CBE0"/>
			</linearGradient>
			<path fill="url(#SVGID_3_)" d="M61.04,112.017c0,5.661-4.59,10.251-10.251,10.251h-1.537c-5.662,0-10.251-4.59-10.251-10.251
				V91.455c0-5.661,4.59-10.251,10.251-10.251h1.537c5.662,0,10.251,4.59,10.251,10.251V112.017z"/>
			<linearGradient id="SVGID_4_" gradientUnits="userSpaceOnUse" x1="71.998" y1="122.2676" x2="71.998" y2="81.2041">
				<stop  offset="0" style="stop-color:#39CBFF"/>
				<stop  offset="1" style="stop-color:#F2CBE0"/>
			</linearGradient>
			<path fill="url(#SVGID_4_)" d="M83.019,112.017c0,5.661-4.59,10.251-10.251,10.251H71.23c-5.662,0-10.252-4.59-10.252-10.251
				V91.455c0-5.661,4.59-10.251,10.252-10.251h1.537c5.662,0,10.251,4.59,10.251,10.251V112.017z"/>
			<linearGradient id="SVGID_5_" gradientUnits="userSpaceOnUse" x1="93.9771" y1="122.2676" x2="93.9771" y2="81.2041">
				<stop  offset="0" style="stop-color:#EA456B"/>
				<stop  offset="1" style="stop-color:#F2CBE0"/>
			</linearGradient>
			<path fill="url(#SVGID_5_)" d="M104.997,112.017c0,5.661-4.589,10.251-10.251,10.251h-1.539c-5.661,0-10.251-4.59-10.251-10.251
				V91.455c0-5.661,4.59-10.251,10.251-10.251h1.539c5.662,0,10.251,4.59,10.251,10.251V112.017z"/>
			<linearGradient id="SVGID_6_" gradientUnits="userSpaceOnUse" x1="115.9556" y1="122.2676" x2="115.9556" y2="81.2041">
				<stop  offset="0" style="stop-color:#39CBFF"/>
				<stop  offset="1" style="stop-color:#F2CBE0"/>
			</linearGradient>
			<path fill="url(#SVGID_6_)" d="M126.976,112.017c0,5.661-4.589,10.251-10.251,10.251h-1.538c-5.661,0-10.251-4.59-10.251-10.251
				V91.455c0-5.661,4.59-10.251,10.251-10.251h1.538c5.662,0,10.251,4.59,10.251,10.251V112.017z"/>
			<linearGradient id="SVGID_7_" gradientUnits="userSpaceOnUse" x1="137.9341" y1="122.2676" x2="137.9341" y2="81.2041">
				<stop  offset="0" style="stop-color:#EA456B"/>
				<stop  offset="1" style="stop-color:#F2CBE0"/>
			</linearGradient>
			<path fill="url(#SVGID_7_)" d="M148.954,112.017c0,5.661-4.589,10.251-10.251,10.251h-1.538c-5.661,0-10.25-4.59-10.25-10.251
				V91.455c0-5.661,4.589-10.251,10.25-10.251h1.538c5.662,0,10.251,4.59,10.251,10.251V112.017z"/>
			<linearGradient id="SVGID_8_" gradientUnits="userSpaceOnUse" x1="159.9121" y1="122.2676" x2="159.9121" y2="81.2041">
				<stop  offset="0" style="stop-color:#39CBFF"/>
				<stop  offset="1" style="stop-color:#F2CBE0"/>
			</linearGradient>
			<path fill="url(#SVGID_8_)" d="M170.932,112.017c0,5.661-4.589,10.251-10.251,10.251h-1.538c-5.662,0-10.251-4.59-10.251-10.251
				V91.455c0-5.661,4.589-10.251,10.251-10.251h1.538c5.662,0,10.251,4.59,10.251,10.251V112.017z"/>
			<linearGradient id="SVGID_9_" gradientUnits="userSpaceOnUse" x1="181.8911" y1="122.2676" x2="181.8911" y2="81.2041">
				<stop  offset="0" style="stop-color:#EA456B"/>
				<stop  offset="1" style="stop-color:#F2CBE0"/>
			</linearGradient>
			<path fill="url(#SVGID_9_)" d="M192.911,112.017c0,5.661-4.589,10.251-10.251,10.251h-1.538c-5.662,0-10.251-4.59-10.251-10.251
				V91.455c0-5.661,4.589-10.251,10.251-10.251h1.538c5.662,0,10.251,4.59,10.251,10.251V112.017z"/>
			<linearGradient id="SVGID_10_" gradientUnits="userSpaceOnUse" x1="203.8696" y1="122.2676" x2="203.8696" y2="81.2041">
				<stop  offset="0" style="stop-color:#39CBFF"/>
				<stop  offset="1" style="stop-color:#F2CBE0"/>
			</linearGradient>
			<path fill="url(#SVGID_10_)" d="M214.889,112.017c0,5.661-4.589,10.251-10.251,10.251h-1.538c-5.663,0-10.251-4.59-10.251-10.251
				V91.455c0-5.661,4.588-10.251,10.251-10.251h1.538c5.662,0,10.251,4.59,10.251,10.251V112.017z"/>
		</g>
		<rect x="38.908" y="85.961" fill="#E5E8EC" width="176.092" height="13.612"/>
		<rect x="38.908" y="77.872" fill="#CDD5D7" width="176.092" height="8.76"/>
		<g>
			<rect x="42.38" y="91.768" fill="#A5B6BE" width="19.007" height="2"/>
		</g>
		<g>
			<rect x="158.739" y="91.768" fill="#A5B6BE" width="7.609" height="2"/>
		</g>
		<g>
			<rect x="169.714" y="91.768" fill="#A5B6BE" width="7.61" height="2"/>
		</g>
		<g>
			<rect x="180.69" y="91.768" fill="#A5B6BE" width="7.61" height="2"/>
		</g>
		<g>
			<rect x="191.664" y="91.768" fill="#A5B6BE" width="7.61" height="2"/>
		</g>
		<g>
			<rect x="202.641" y="91.768" fill="#A5B6BE" width="7.609" height="2"/>
		</g>
		<g>
			<rect x="41.748" y="80.661" fill="#879BA6" width="2.544" height="3"/>
		</g>
		<g>
			<rect x="46.706" y="80.661" fill="#879BA6" width="2.543" height="3"/>
		</g>
		<g>
			<rect x="51.667" y="80.661" fill="#879BA6" width="2.545" height="3"/>
		</g>
	</g>
	<rect x="64.833" y="173.769" fill="#F2CBE0" width="32.667" height="11.333"/>
	<g>
		<g>
			<rect x="64.833" y="138.834" fill="#A5B6BE" width="30.04" height="3"/>
		</g>
		<g>
			<rect x="64.833" y="151.834" fill="#D9E1E4" width="58.5" height="2"/>
		</g>
		<g>
			<rect x="64.833" y="158.334" fill="#D9E1E4" width="58.5" height="2"/>
		</g>
		<g>
			<rect x="64.833" y="163.834" fill="#D9E1E4" width="58.5" height="2"/>
		</g>
	</g>
	<g>
		<linearGradient id="SVGID_11_" gradientUnits="userSpaceOnUse" x1="133.6865" y1="57.9434" x2="165.8578" y2="25.7721">
			<stop  offset="0" style="stop-color:#F2CBE0"/>
			<stop  offset="1" style="stop-color:#EA456B"/>
		</linearGradient>
		<circle fill="url(#SVGID_11_)" cx="149.772" cy="41.857" r="22.748"/>
	</g>
	<g>
		<polygon fill="#FFFFFF" points="144.87,49.532 138.939,43.602 141.061,41.48 144.87,45.29 158.418,31.742 160.539,33.863 		"/>
	</g>
	<polygon opacity="0.2" fill="#5E7382" points="101.741,134.461 101.741,148.073 101.741,219.833 220.833,219.833 220.833,148.073 
		220.833,134.461 	"/>
	<g>
		<g>
			<linearGradient id="SVGID_12_" gradientUnits="userSpaceOnUse" x1="43.5825" y1="187.1348" x2="-3.4176" y2="98.1345">
				<stop  offset="0" style="stop-color:#EA456B"/>
				<stop  offset="1" style="stop-color:#F2CBE0"/>
			</linearGradient>
			<rect x="1" y="129.435" fill="url(#SVGID_12_)" width="51.333" height="51.333"/>
			<path fill="#F2CBE0" d="M53.333,181.768H0v-53.333h53.333V181.768z M2,179.768h49.333v-49.333H2V179.768z"/>
		</g>
		<g>
			<path fill="#F2CBE0" d="M52.333,181.768H1l-0.707-1.707l51.333-51.333l1.707,0.707v51.333L52.333,181.768z M3.414,179.768h47.918
				v-47.919L3.414,179.768z"/>
		</g>
		<g>
			<path fill="#F2CBE0" d="M52.333,181.769H1l-1-1v-51.333l1.707-0.707l51.333,51.333L52.333,181.769z M2,179.769h47.918L2,131.85
				V179.769z"/>
		</g>
	</g>
	<g>
		<g>
			<linearGradient id="SVGID_13_" gradientUnits="userSpaceOnUse" x1="222.7671" y1="206.1289" x2="309.7674" y2="157.1288">
				<stop  offset="0" style="stop-color:#EA456B"/>
				<stop  offset="1" style="stop-color:#F2CBE0"/>
			</linearGradient>
			<rect x="239" y="158.244" fill="url(#SVGID_13_)" width="63" height="42"/>
			<rect x="278.827" y="158.244" fill="#EA456B" width="23.172" height="42"/>
			<linearGradient id="SVGID_14_" gradientUnits="userSpaceOnUse" x1="278.8276" y1="151.5781" x2="309" y2="151.5781">
				<stop  offset="0" style="stop-color:#EA456B"/>
				<stop  offset="1" style="stop-color:#F2CBE0"/>
			</linearGradient>
			<polygon fill="url(#SVGID_14_)" points="309,144.911 285.828,144.911 278.828,158.244 302,158.244 			"/>
			<polygon fill="#EA456B" points="232.999,144.912 256.172,144.912 263.172,158.245 239.999,158.245 			"/>
		</g>
		<g>
			<g>
				<polygon fill="#EA456B" points="263.957,184.671 268.874,189.536 273.792,184.671 				"/>
				<rect x="266.98" y="177.401" fill="#EA456B" width="3.634" height="7.27"/>
			</g>
			<g>
				<polygon fill="#EA456B" points="252.707,184.671 257.624,189.536 262.542,184.671 				"/>
				<rect x="255.73" y="177.401" fill="#EA456B" width="3.634" height="7.27"/>
			</g>
			<g>
				<rect x="252.423" y="191.077" fill="#EA456B" width="21.02" height="3.634"/>
			</g>
		</g>
	</g>
	<g>
		<g>
			<linearGradient id="SVGID_15_" gradientUnits="userSpaceOnUse" x1="254.5093" y1="125.9434" x2="286.6806" y2="93.7721">
				<stop  offset="0" style="stop-color:#39CBFF"/>
				<stop  offset="1" style="stop-color:#007ACD"/>
			</linearGradient>
			<circle fill="url(#SVGID_15_)" cx="270.595" cy="109.857" r="22.749"/>
		</g>
		<g>
			<rect x="269.095" y="99.003" fill="#FFFFFF" width="3" height="20.574"/>
		</g>
		<g>
			<polygon fill="#FFFFFF" points="270.509,120.616 262.187,112.29 264.309,110.169 270.531,116.394 276.893,110.158 
				278.993,112.301 			"/>
		</g>
	</g>
	<g>
		<rect x="107.741" y="130.461" fill="#FFFFFF" width="119.092" height="85.372"/>
		<rect x="109.407" y="145.101" fill="#F3F3F3" width="115.758" height="13.732"/>
		<rect x="109.407" y="172.767" fill="#F3F3F3" width="115.758" height="13.732"/>
		<linearGradient id="SVGID_16_" gradientUnits="userSpaceOnUse" x1="109.4077" y1="207.2988" x2="225.166" y2="207.2988">
			<stop  offset="0" style="stop-color:#EA456B"/>
			<stop  offset="1" style="stop-color:#F2CBE0"/>
		</linearGradient>
		<rect x="109.407" y="200.433" fill="url(#SVGID_16_)" width="115.758" height="13.732"/>
		<rect x="107.741" y="130.461" fill="#E5E8EC" width="119.092" height="13.612"/>
		<g>
			<rect x="116.546" y="136.268" fill="#A5B6BE" width="35.62" height="2"/>
		</g>
		<g>
			<rect x="188.581" y="136.268" fill="#A5B6BE" width="10.919" height="2"/>
		</g>
		<g>
			<rect x="204.331" y="136.268" fill="#A5B6BE" width="10.92" height="2"/>
		</g>
		<g>
			<rect x="116.546" y="150.935" fill="#D9E1E4" width="35.62" height="2"/>
		</g>
		<g>
			<rect x="188.581" y="150.935" fill="#D9E1E4" width="10.919" height="2"/>
		</g>
		<g>
			<rect x="204.331" y="150.935" fill="#D9E1E4" width="10.92" height="2"/>
		</g>
		<g>
			<rect x="116.546" y="164.852" fill="#D9E1E4" width="35.62" height="2"/>
		</g>
		<g>
			<rect x="188.581" y="164.852" fill="#D9E1E4" width="10.919" height="2"/>
		</g>
		<g>
			<rect x="204.331" y="164.852" fill="#D9E1E4" width="10.92" height="2"/>
		</g>
		<g>
			<rect x="116.546" y="178.768" fill="#D9E1E4" width="35.62" height="2"/>
		</g>
		<g>
			<rect x="188.581" y="178.768" fill="#D9E1E4" width="10.919" height="2"/>
		</g>
		<g>
			<rect x="204.331" y="178.768" fill="#D9E1E4" width="10.92" height="2"/>
		</g>
		<g>
			<rect x="116.546" y="192.686" fill="#D9E1E4" width="35.62" height="2"/>
		</g>
		<g>
			<rect x="188.581" y="192.686" fill="#D9E1E4" width="10.919" height="2"/>
		</g>
		<g>
			<rect x="204.331" y="192.686" fill="#D9E1E4" width="10.92" height="2"/>
		</g>
		<g>
			<rect x="116.546" y="206.602" fill="#FFFFFF" width="35.62" height="2"/>
		</g>
		<g>
			<rect x="188.581" y="206.602" fill="#FFFFFF" width="10.919" height="2"/>
		</g>
		<g>
			<rect x="204.331" y="206.602" fill="#FFFFFF" width="10.92" height="2"/>
		</g>
	</g>
</g>
</svg>
