<?xml version="1.0" encoding="utf-8"?>
<!-- Generator: Adobe Illustrator 16.0.0, SVG Export Plug-In . SVG Version: 6.00 Build 0)  -->
<!DOCTYPE svg PUBLIC "-//W3C//DTD SVG 1.1//EN" "http://www.w3.org/Graphics/SVG/1.1/DTD/svg11.dtd">
<svg version="1.1" id="Layer_4" xmlns="http://www.w3.org/2000/svg" xmlns:xlink="http://www.w3.org/1999/xlink" x="0px" y="0px"
	 width="285.296px" height="297.836px" viewBox="0 0 285.296 297.836" enable-background="new 0 0 285.296 297.836"
	 xml:space="preserve">
<g>
	<linearGradient id="SVGID_1_" gradientUnits="userSpaceOnUse" x1="157.769" y1="19.6982" x2="126.6336" y2="353.699">
		<stop  offset="0" style="stop-color:#39CBFF"/>
		<stop  offset="1" style="stop-color:#CA88F6"/>
	</linearGradient>
	<path fill="url(#SVGID_1_)" d="M14.185,109.875c0-16.5,11.691-36.75,25.981-45l78.965-45.591c14.29-8.25,37.672-8.25,51.962,0
		l78.966,45.591c14.29,8.25,25.981,28.5,25.981,45l0.001,91.183c0,16.5-11.691,36.75-25.981,45l-78.966,45.591
		c-14.29,8.25-37.672,8.25-51.962,0l-78.966-45.592c-14.29-8.25-25.98-28.5-25.98-45V109.875z"/>
	<linearGradient id="SVGID_2_" gradientUnits="userSpaceOnUse" x1="95.2988" y1="183.6738" x2="274.6748" y2="183.6738">
		<stop  offset="0" style="stop-color:#007ACD"/>
		<stop  offset="1" style="stop-color:#CA88F6"/>
	</linearGradient>
	<path fill="url(#SVGID_2_)" d="M170.772,107.492l-0.275,0.275c-7.579-6.979-17.047-10.902-27.724-11.421
		c-0.801-0.037-1.606-0.062-2.42-0.065c-0.002,0-0.004,0-0.004,0s-0.002,0-0.004,0c-4.973,0.004-9.181,0.669-13.912,2.205
		c-0.126,0.043-0.246,0.093-0.373,0.131c-0.555,0.186-1.104,0.379-1.646,0.581c-0.156,0.06-0.308,0.122-0.466,0.184
		c-16.938,6.548-27.919,21.896-28.613,40.109c-0.018,0.427-0.02,0.853-0.024,1.28c-0.002,0.189-0.011,0.375-0.011,0.564
		c0,0.035,0.004,0.07,0.004,0.105c0,0.604,0.018,1.205,0.042,1.805c0.011,0.181,0.011,0.359,0.022,0.539
		c0.024,0.469,0.066,0.933,0.106,1.4c0.026,0.325,0.049,0.652,0.086,0.977c0.027,0.26,0.066,0.518,0.098,0.776
		c0.069,0.538,0.135,1.075,0.22,1.607c0.006,0.03,0.013,0.058,0.018,0.089c0.625,3.835,1.734,7.5,3.261,10.944
		c0.19,0.423,0.377,0.85,0.577,1.27c0.004,0.011,0.013,0.023,0.018,0.037c2.921,6.054,7.159,11.352,12.339,15.528l94.653,94.652
		l43.317-25.009c11.401-6.582,21.14-20.802,24.615-34.663L170.772,107.492z"/>
	<g>
		<path fill="#E3E7EA" d="M179.075,78.63c0,3.178-2.576,5.753-5.754,5.753h-49.862c-3.177,0-5.753-2.575-5.753-5.753V5.753
			c0-3.178,2.576-5.753,5.753-5.753h34.521l21.096,21.096V78.63z"/>
		<polygon fill="#CDD5D7" points="159.144,19.178 178.321,38.104 178.321,21.096 176.403,19.178 		"/>
		<linearGradient id="SVGID_3_" gradientUnits="userSpaceOnUse" x1="157.979" y1="10.5479" x2="179.0747" y2="10.5479">
			<stop  offset="0" style="stop-color:#B5DA60"/>
			<stop  offset="1" style="stop-color:#4DB544"/>
		</linearGradient>
		<path fill="url(#SVGID_3_)" d="M157.979,0v15.342c0,3.179,2.576,5.754,5.753,5.754h15.342L157.979,0z"/>
		<g>
			<g>
				<rect x="126.46" y="19.806" fill="#B6C2C9" width="21.833" height="2"/>
			</g>
			<g>
				<rect x="126.46" y="30.765" fill="#B6C2C9" width="42.521" height="2"/>
			</g>
			<g>
				<rect x="126.46" y="35.713" fill="#B6C2C9" width="42.521" height="2"/>
			</g>
			<g>
				<rect x="126.46" y="40.66" fill="#B6C2C9" width="42.521" height="2"/>
			</g>
			<g>
				<rect x="126.46" y="45.607" fill="#B6C2C9" width="42.521" height="2"/>
			</g>
			<g>
				<rect x="126.46" y="50.555" fill="#B6C2C9" width="42.521" height="2"/>
			</g>
			<g>
				<rect x="126.46" y="55.501" fill="#B6C2C9" width="42.521" height="2"/>
			</g>
			<g>
				<rect x="126.46" y="60.448" fill="#B6C2C9" width="42.521" height="2"/>
			</g>
			<g>
				<rect x="126.46" y="65.396" fill="#B6C2C9" width="35.506" height="2"/>
			</g>
		</g>
	</g>
	<g>
		<g>
			<g>
				<rect y="166.39" fill="#F3F3F3" width="92.626" height="68.996"/>
				<rect y="166.39" fill="#CDD5D7" width="92.626" height="8.76"/>
				<g>
					<rect x="2.84" y="169.179" fill="#879BA6" width="2.544" height="3"/>
				</g>
				<g>
					<rect x="7.799" y="169.179" fill="#879BA6" width="2.544" height="3"/>
				</g>
				<g>
					<rect x="12.76" y="169.179" fill="#879BA6" width="2.544" height="3"/>
				</g>
			</g>
		</g>
		<g>
			<linearGradient id="SVGID_4_" gradientUnits="userSpaceOnUse" x1="7.1768" y1="201.0605" x2="85.4492" y2="201.0605">
				<stop  offset="0" style="stop-color:#39CBFF"/>
				<stop  offset="1" style="stop-color:#F2CBE0"/>
			</linearGradient>
			<rect x="7.177" y="183.021" fill="url(#SVGID_4_)" width="78.272" height="36.08"/>
			<polygon fill="#FFFFFF" points="52.622,201.06 47.207,204.185 41.791,207.313 41.791,201.06 41.791,194.806 47.207,197.931 			
				"/>
			<g>
				<rect x="17.278" y="224.657" fill="#879BA6" width="5.93" height="2"/>
			</g>
			<g>
				<rect x="29.063" y="224.657" fill="#879BA6" width="50.018" height="2"/>
			</g>
			<g>
				<rect x="81.263" y="224.657" fill="#879BA6" width="3.964" height="2"/>
			</g>
			<g>
				<rect x="6.841" y="223.124" fill="#879BA6" width="2" height="5.068"/>
			</g>
			<g>
				<rect x="11.036" y="223.124" fill="#879BA6" width="2" height="5.068"/>
			</g>
			<g>
				<path fill="#879BA6" d="M26.89,229.657c-2.206,0-4.001-1.794-4.001-4s1.795-4,4.001-4c2.206,0,4,1.794,4,4
					S29.095,229.657,26.89,229.657z M26.89,223.657c-1.104,0-2.001,0.897-2.001,2s0.897,2,2.001,2c1.103,0,2-0.897,2-2
					S27.992,223.657,26.89,223.657z"/>
			</g>
		</g>
	</g>
	<g>
		<g>
			<g>
				<polygon fill="#FFFFFF" points="208.493,97.98 205.936,97.98 205.936,81.689 222.351,78.406 222.351,95.209 219.792,95.209 
					219.792,81.527 208.493,83.787 				"/>
			</g>
			<g>
				<polygon fill="#FFFFFF" points="207.749,87.83 207.248,83.617 221.104,80.846 221.606,85.059 				"/>
			</g>
			<g>
				<circle fill="#FFFFFF" cx="204.443" cy="97.98" r="2.771"/>
				<path fill="#FFFFFF" d="M204.443,102.031c-2.233,0-4.05-1.816-4.05-4.051c0-2.232,1.817-4.049,4.05-4.049s4.05,1.816,4.05,4.049
					C208.493,100.215,206.676,102.031,204.443,102.031z M204.443,96.49c-0.823,0-1.493,0.668-1.493,1.49
					c0,0.824,0.67,1.494,1.493,1.494s1.493-0.67,1.493-1.494C205.936,97.158,205.266,96.49,204.443,96.49z"/>
			</g>
			<g>
				<circle fill="#FFFFFF" cx="218.299" cy="95.209" r="2.771"/>
				<path fill="#FFFFFF" d="M218.3,99.26c-2.233,0-4.05-1.816-4.05-4.051c0-2.232,1.817-4.049,4.05-4.049s4.051,1.816,4.051,4.049
					C222.351,97.443,220.533,99.26,218.3,99.26z M218.3,93.719c-0.822,0-1.492,0.668-1.492,1.49c0,0.824,0.67,1.494,1.492,1.494
					c0.823,0,1.492-0.67,1.492-1.494C219.792,94.387,219.123,93.719,218.3,93.719z"/>
			</g>
		</g>
		<g>
			<g>
				<rect x="238.113" y="112.467" fill="#F3F3F3" width="2" height="6.895"/>
			</g>
			<g>
				<rect x="201.967" y="108.219" fill="#F3F3F3" width="2" height="15.389"/>
			</g>
			<g>
				<rect x="206.485" y="110.875" fill="#F3F3F3" width="2" height="10.078"/>
			</g>
			<g>
				<rect x="211.004" y="113.527" fill="#F3F3F3" width="2" height="4.773"/>
			</g>
			<g>
				<rect x="215.522" y="110.344" fill="#F3F3F3" width="2" height="11.141"/>
			</g>
			<g>
				<rect x="220.04" y="102.914" fill="#F3F3F3" width="2" height="26"/>
			</g>
			<g>
				<rect x="224.559" y="107.16" fill="#F3F3F3" width="2" height="17.508"/>
			</g>
			<g>
				<rect x="229.077" y="105.568" fill="#F3F3F3" width="2" height="20.691"/>
			</g>
			<g>
				<rect x="233.595" y="102.914" fill="#F3F3F3" width="2" height="26"/>
			</g>
			<g>
				<rect x="242.631" y="108.752" fill="#F3F3F3" width="2" height="14.324"/>
			</g>
			<g>
				<rect x="247.15" y="106.627" fill="#F3F3F3" width="2" height="18.572"/>
			</g>
			<g>
				<rect x="251.668" y="102.914" fill="#F3F3F3" width="2" height="26"/>
			</g>
			<g>
				<rect x="256.187" y="108.221" fill="#F3F3F3" width="2" height="15.387"/>
			</g>
			<g>
				<rect x="260.705" y="105.568" fill="#F3F3F3" width="2" height="20.691"/>
			</g>
			<g>
				<rect x="265.223" y="109.283" fill="#F3F3F3" width="2" height="13.262"/>
			</g>
			<g>
				<rect x="269.741" y="105.568" fill="#F3F3F3" width="2" height="20.691"/>
			</g>
			<g>
				<rect x="274.26" y="109.283" fill="#F3F3F3" width="2" height="13.262"/>
			</g>
			<g>
				<rect x="278.778" y="109.283" fill="#F3F3F3" width="2" height="13.262"/>
			</g>
			<g>
				<rect x="283.296" y="105.568" fill="#F3F3F3" width="2" height="20.691"/>
			</g>
		</g>
	</g>
	<g>
		<g>
			<g>
				<rect y="53.681" fill="#F3F3F3" width="138.939" height="81.996"/>
				<rect y="53.681" fill="#CDD5D7" width="138.939" height="8.76"/>
				<g>
					<rect x="2.84" y="56.47" fill="#879BA6" width="2.543" height="3"/>
				</g>
				<g>
					<rect x="7.799" y="56.47" fill="#879BA6" width="2.543" height="3"/>
				</g>
				<g>
					<rect x="12.76" y="56.47" fill="#879BA6" width="2.544" height="3"/>
				</g>
			</g>
		</g>
		<g>
			<polygon fill="#B0D9EF" points="134.251,128.327 41.852,128.327 41.852,68.515 42.852,68.515 42.852,127.327 134.251,127.327 			
				"/>
		</g>
		<g>
			<linearGradient id="SVGID_5_" gradientUnits="userSpaceOnUse" x1="12.7832" y1="89.9346" x2="33.5972" y2="89.9346">
				<stop  offset="0" style="stop-color:#39CBFF"/>
				<stop  offset="1" style="stop-color:#F2CBE0"/>
			</linearGradient>
			<path fill="url(#SVGID_5_)" d="M21.064,95.843c-3.08,0-5.99-1.102-8.281-3.117l8.698-8.699h12.116
				c-0.176,3.076-1.459,5.941-3.655,8.139C27.57,94.536,24.418,95.843,21.064,95.843z"/>
			<linearGradient id="SVGID_6_" gradientUnits="userSpaceOnUse" x1="21.8818" y1="76.4375" x2="33.5615" y2="76.4375">
				<stop  offset="0" style="stop-color:#B5DA60"/>
				<stop  offset="1" style="stop-color:#4DB544"/>
			</linearGradient>
			<path fill="url(#SVGID_6_)" d="M21.882,82.118V70.757c6.195,0.391,11.119,5.182,11.68,11.361H21.882z"/>
			<g>
				<path fill="#879BA6" d="M21.013,99.468c-3.961,0-7.773-1.447-10.733-4.076l1.328-1.496c2.594,2.304,5.934,3.572,9.405,3.572
					c7.814,0,14.172-6.357,14.172-14.172c0-7.579-5.924-13.797-13.486-14.155l0.095-1.998c8.631,0.409,15.392,7.504,15.392,16.153
					C37.185,92.213,29.931,99.468,21.013,99.468z"/>
			</g>
			<g>
				<path fill="#879BA6" d="M17.892,69.698v12.309l-8.628,8.809c-1.431-2.232-2.203-4.837-2.203-7.52
					C7.062,76.731,11.672,71.126,17.892,69.698L17.892,69.698z M19.892,67.386c-8.286,0.576-14.831,7.477-14.831,15.91
					c0,4.057,1.518,7.758,4.012,10.572l10.819-11.045V67.386L19.892,67.386z"/>
			</g>
		</g>
		<g>
			<g>
				<rect x="9.352" y="105.515" fill="#F5B1AE" width="6.666" height="2"/>
			</g>
			<g>
				<rect x="19.102" y="105.515" fill="#879BA6" width="14.168" height="2"/>
			</g>
			<g>
				<rect x="9.352" y="111.015" fill="#B2DDC9" width="6.666" height="2"/>
			</g>
			<g>
				<rect x="19.102" y="111.015" fill="#879BA6" width="14.168" height="2"/>
			</g>
			<g>
				<rect x="9.352" y="116.515" fill="#D8E5ED" width="6.666" height="2"/>
			</g>
			<g>
				<rect x="19.102" y="116.515" fill="#879BA6" width="14.168" height="2"/>
			</g>
		</g>
		<g>
			<g>
				<rect x="42.352" y="73.382" fill="#D8E5ED" width="88.07" height="1"/>
			</g>
			<g>
				<rect x="42.352" y="81.29" fill="#D8E5ED" width="88.07" height="1"/>
			</g>
			<g>
				<rect x="42.352" y="89.198" fill="#D8E5ED" width="88.07" height="1"/>
			</g>
			<g>
				<rect x="42.352" y="97.106" fill="#D8E5ED" width="88.07" height="1"/>
			</g>
			<g>
				<rect x="42.352" y="105.015" fill="#D8E5ED" width="88.07" height="1"/>
			</g>
			<g>
				<rect x="42.352" y="112.925" fill="#D8E5ED" width="88.07" height="1"/>
			</g>
			<g>
				<rect x="42.352" y="120.833" fill="#D8E5ED" width="88.07" height="1"/>
			</g>
		</g>
		<g>
			<g>
				<g>
					<rect x="94.638" y="127.931" fill="#D8E5ED" width="1" height="3.178"/>
				</g>
				<g>
					<rect x="86.98" y="127.931" fill="#D8E5ED" width="1" height="3.178"/>
				</g>
				<g>
					<rect x="79.321" y="127.931" fill="#D8E5ED" width="1" height="3.178"/>
				</g>
				<g>
					<rect x="71.664" y="127.931" fill="#D8E5ED" width="1" height="3.178"/>
				</g>
				<g>
					<rect x="64.005" y="127.931" fill="#D8E5ED" width="1" height="3.178"/>
				</g>
				<g>
					<rect x="56.346" y="127.931" fill="#D8E5ED" width="1" height="3.178"/>
				</g>
				<g>
					<rect x="48.688" y="127.931" fill="#D8E5ED" width="1" height="3.178"/>
				</g>
			</g>
			<g>
				<g>
					<rect x="132.929" y="127.931" fill="#D8E5ED" width="1" height="3.178"/>
				</g>
				<g>
					<rect x="125.271" y="127.931" fill="#D8E5ED" width="1" height="3.178"/>
				</g>
				<g>
					<rect x="117.613" y="127.931" fill="#D8E5ED" width="1" height="3.178"/>
				</g>
				<g>
					<rect x="109.953" y="127.931" fill="#D8E5ED" width="1" height="3.178"/>
				</g>
				<g>
					<rect x="102.295" y="127.931" fill="#D8E5ED" width="1" height="3.178"/>
				</g>
			</g>
		</g>
		<g>
			<polygon fill="#F5B1AE" points="48.076,121.47 46.473,118.935 81.883,96.531 103.339,103.263 123.151,85.463 125.156,87.695 
				104.072,106.638 82.312,99.811 			"/>
		</g>
		<g>
			<polygon fill="#B0D9EF" points="84.336,113.895 66.076,101.04 47.749,110.914 46.8,109.154 66.217,98.692 84.061,111.256 
				104.436,89.374 123.115,96.387 122.412,98.26 104.986,91.718 			"/>
		</g>
	</g>
	<g>
		<linearGradient id="SVGID_7_" gradientUnits="userSpaceOnUse" x1="126.0596" y1="109.6514" x2="176.7896" y2="109.6514">
			<stop  offset="0" style="stop-color:#39CBFF"/>
			<stop  offset="1" style="stop-color:#F2CBE0"/>
		</linearGradient>
		<path fill="url(#SVGID_7_)" d="M175.108,112.668c-8.178-10.051-19.369-15.691-32.335-16.321c-0.801-0.037-1.606-0.062-2.42-0.065
			c-0.002,0-0.004,0-0.004,0s-0.002,0-0.004,0c-4.973,0.004-9.181,0.669-13.912,2.205c-0.126,0.043-0.246,0.093-0.373,0.131
			c0.124-0.038,0.241-0.085,0.365-0.126l4.292,13.211c3.033-0.987,6.267-1.526,9.627-1.526h0.002c10.361,0,19.535,5.062,25.2,12.846
			l11.244-8.17C176.244,114.104,175.683,113.374,175.108,112.668z"/>
		<linearGradient id="SVGID_8_" gradientUnits="userSpaceOnUse" x1="165.5459" y1="129.1445" x2="185.3979" y2="129.1445">
			<stop  offset="0" style="stop-color:#B5DA60"/>
			<stop  offset="1" style="stop-color:#4DB544"/>
		</linearGradient>
		<path fill="url(#SVGID_8_)" d="M165.546,123.021c3.742,5.141,5.956,11.464,5.956,18.31h13.892c0,0.002,0,0.002,0,0.002v0.003
			c0,0.813-0.024,1.619-0.066,2.422c-0.002,0.03-0.002,0.067-0.004,0.103c0.049-0.837,0.075-1.681,0.075-2.533
			c0-9.694-3.061-18.675-8.271-26.021c-0.641-0.905-0.883-1.202-0.337-0.454L165.546,123.021z"/>
		<linearGradient id="SVGID_9_" gradientUnits="userSpaceOnUse" x1="95.2988" y1="142.4375" x2="166.8218" y2="142.4375">
			<stop  offset="0" style="stop-color:#FFDF7D"/>
			<stop  offset="1" style="stop-color:#FEB422"/>
		</linearGradient>
		<path fill="url(#SVGID_9_)" d="M158.657,166.533c-5.139,3.741-11.465,5.955-18.311,5.955c-17.208,0-31.155-13.947-31.155-31.155
			c0-13.845,9.032-25.576,21.526-29.631l-4.292-13.211c-0.124,0.041-0.241,0.088-0.365,0.126c-0.555,0.186-1.104,0.379-1.646,0.581
			c-0.156,0.06-0.308,0.122-0.466,0.184c-16.938,6.548-27.919,21.896-28.613,40.109c-0.018,0.427-0.02,0.853-0.024,1.28
			c-0.002,0.189-0.011,0.375-0.011,0.564c0,0.035,0.004,0.07,0.004,0.105c0,0.604,0.018,1.205,0.042,1.805
			c0.011,0.181,0.011,0.359,0.022,0.539c0.024,0.469,0.066,0.933,0.106,1.4c0.026,0.325,0.049,0.652,0.086,0.977
			c0.027,0.26,0.066,0.518,0.098,0.776c0.069,0.538,0.135,1.075,0.22,1.607c0.006,0.03,0.013,0.058,0.018,0.089
			c0.625,3.835,1.734,7.5,3.261,10.944c0.19,0.423,0.377,0.85,0.577,1.27c0.004,0.011,0.013,0.023,0.018,0.037
			c6.63,13.741,20.036,23.604,35.882,25.251c0.091,0.01,0.18,0.016,0.271,0.024c0.53,0.053,1.067,0.092,1.602,0.126
			c0.275,0.014,0.546,0.032,0.821,0.045c0.359,0.016,0.721,0.02,1.084,0.026c0.313,0.007,0.624,0.024,0.938,0.024
			c9.895,0,19.042-3.199,26.473-8.608L158.657,166.533z"/>
		<linearGradient id="SVGID_10_" gradientUnits="userSpaceOnUse" x1="158.6567" y1="159.5527" x2="185.3936" y2="159.5527">
			<stop  offset="0" style="stop-color:#39CBFF"/>
			<stop  offset="1" style="stop-color:#CA88F6"/>
		</linearGradient>
		<path fill="url(#SVGID_10_)" d="M168.907,176.172c9.533-7.719,15.121-18.135,16.256-30.201c0.007-0.083,0.013-0.166,0.02-0.248
			c0.055-0.617,0.108-1.236,0.14-1.862c0.002-0.035,0.002-0.072,0.004-0.103c0.038-0.803,0.066-1.606,0.066-2.422
			c0,0,0-0.003,0-0.005h-13.892v0.002c0,10.362-5.064,19.535-12.845,25.2l8.165,11.241l0,0c0.004-0.004,0.006-0.005,0.011-0.009
			C167.544,177.25,168.234,176.715,168.907,176.172z"/>
		<g>
			<polygon fill="#FFFFFF" points="187.307,120.805 184.559,119.6 189.739,107.786 197.582,107.786 197.582,110.786 
				191.699,110.786 			"/>
		</g>
		<g>
			<polygon fill="#FFFFFF" points="190.551,186.386 182.705,186.386 177.527,174.569 180.275,173.366 184.666,183.386 
				190.551,183.386 			"/>
		</g>
		<g>
			<polygon fill="#FFFFFF" points="107.853,195.905 100.01,195.905 100.01,192.905 105.893,192.905 110.286,182.888 
				113.033,184.093 			"/>
		</g>
	</g>
	<g>
		<g>
			<rect x="196.153" y="155.056" fill="#F3F3F3" width="86.625" height="74.996"/>
			<rect x="196.153" y="155.056" fill="#CDD5D7" width="86.625" height="8.76"/>
			<g>
				<rect x="198.992" y="157.845" fill="#879BA6" width="2.544" height="3"/>
			</g>
			<g>
				<rect x="203.951" y="157.845" fill="#879BA6" width="2.544" height="3"/>
			</g>
			<g>
				<rect x="208.912" y="157.845" fill="#879BA6" width="2.545" height="3"/>
			</g>
		</g>
		<g>
			<g>
				<path fill="#B5D1DE" d="M216.708,185.102v-1.799c0-1.99-1.612-3.602-3.601-3.602h-6.299c-1.988,0-3.6,1.611-3.6,3.602v1.799
					H216.708z"/>
				<circle fill="#B5D1DE" cx="209.958" cy="173.852" r="3.149"/>
			</g>
			<g>
				<path fill="#D8E5ED" d="M222.947,175.188h42.315H222.947z"/>
				<rect x="222.947" y="174.188" fill="#B5D1DE" width="42.315" height="2"/>
			</g>
			<g>
				<rect x="203.209" y="190.188" fill="#D8E5ED" width="11.506" height="2"/>
			</g>
			<g>
				<rect x="203.209" y="195.188" fill="#D8E5ED" width="15.076" height="2"/>
			</g>
			<g>
				<rect x="203.209" y="200.188" fill="#D8E5ED" width="11.506" height="2"/>
			</g>
			<g>
				<rect x="203.209" y="205.188" fill="#D8E5ED" width="13.076" height="2"/>
			</g>
			<g>
				<rect x="203.209" y="210.188" fill="#D8E5ED" width="9.076" height="2"/>
			</g>
			<g>
				<path fill="#D8E5ED" d="M222.947,191.188h42.315H222.947z"/>
				<rect x="222.947" y="190.188" fill="#B5D1DE" width="42.315" height="2"/>
			</g>
			<g>
				<path fill="#D8E5ED" d="M222.947,219.188h11.659H222.947z"/>
				<rect x="222.947" y="218.188" fill="#B5D1DE" width="11.659" height="2"/>
			</g>
			<g>
				<path fill="#D8E5ED" d="M239.3,219.188h11.66H239.3z"/>
				<rect x="239.3" y="218.188" fill="#B5D1DE" width="11.66" height="2"/>
			</g>
			<g>
				<path fill="#D8E5ED" d="M255.654,219.188h11.659H255.654z"/>
				<rect x="255.654" y="218.188" fill="#B5D1DE" width="11.659" height="2"/>
			</g>
			<g>
				<path fill="#D8E5ED" d="M222.947,180.566h28.327H222.947z"/>
				<rect x="222.947" y="179.566" fill="#B5D1DE" width="28.327" height="2"/>
			</g>
			<rect x="222.947" y="195.467" fill="#D8E5ED" width="52.333" height="20"/>
		</g>
	</g>
	<g>
		<rect x="136.885" y="201.288" fill="#F3F3F3" width="73.426" height="64.373"/>
		<rect x="138.36" y="212.327" fill="#FFFFFF" width="70.474" height="10.354"/>
		<rect x="138.36" y="233.188" fill="#FFFFFF" width="70.474" height="10.354"/>
		<rect x="138.36" y="254.049" fill="#D8E5ED" width="70.474" height="10.354"/>
		<rect x="136.885" y="201.288" fill="#CDD5D7" width="73.426" height="10.264"/>
		<g>
			<rect x="142.68" y="204.921" fill="#879BA6" width="24.531" height="3"/>
		</g>
		<g>
			<rect x="191.447" y="204.921" fill="#879BA6" width="4.667" height="3"/>
		</g>
		<g>
			<rect x="200.391" y="204.921" fill="#879BA6" width="4.667" height="3"/>
		</g>
		<g>
			<rect x="142.68" y="216.479" fill="#B0D9EF" width="31.531" height="2"/>
		</g>
		<g>
			<rect x="191.447" y="216.479" fill="#B0D9EF" width="4.667" height="2"/>
		</g>
		<g>
			<rect x="200.391" y="216.479" fill="#B0D9EF" width="4.667" height="2"/>
		</g>
		<g>
			<rect x="142.68" y="226.974" fill="#B0D9EF" width="25.531" height="2"/>
		</g>
		<g>
			<rect x="191.447" y="226.974" fill="#B0D9EF" width="4.667" height="2"/>
		</g>
		<g>
			<rect x="200.391" y="226.974" fill="#B0D9EF" width="4.667" height="2"/>
		</g>
		<g>
			<rect x="142.68" y="237.467" fill="#B0D9EF" width="39.531" height="2"/>
		</g>
		<g>
			<rect x="191.447" y="237.467" fill="#B0D9EF" width="4.667" height="2"/>
		</g>
		<g>
			<rect x="200.391" y="237.467" fill="#B0D9EF" width="4.667" height="2"/>
		</g>
		<g>
			<rect x="142.68" y="247.962" fill="#B0D9EF" width="31.531" height="2"/>
		</g>
		<g>
			<rect x="191.447" y="247.962" fill="#B0D9EF" width="4.667" height="2"/>
		</g>
		<g>
			<rect x="200.391" y="247.962" fill="#B0D9EF" width="4.667" height="2"/>
		</g>
		<g>
			<rect x="142.68" y="258.454" fill="#879BA6" width="31.531" height="2"/>
		</g>
		<g>
			<rect x="191.447" y="258.454" fill="#879BA6" width="4.667" height="2"/>
		</g>
		<g>
			<rect x="200.391" y="258.454" fill="#879BA6" width="4.667" height="2"/>
		</g>
	</g>
</g>
</svg>
