<?xml version="1.0" encoding="utf-8"?>
<!-- Generator: Adobe Illustrator 25.0.0, SVG Export Plug-In . SVG Version: 6.00 Build 0)  -->
<svg version="1.1" id="图层_1" xmlns="http://www.w3.org/2000/svg" xmlns:xlink="http://www.w3.org/1999/xlink" x="0px" y="0px"
	 viewBox="0 0 1285 396.6" style="enable-background:new 0 0 1285 396.6;" xml:space="preserve">
<style type="text/css">
	.st0{fill:url(#SVGID_1_);}
	.st1{fill:#7F0023;}
	.st2{fill:#AA0043;stroke:#000000;stroke-miterlimit:10;}
	.st3{opacity:0.38;fill:url(#SVGID_2_);enable-background:new    ;}
	.st4{fill:url(#SVGID_3_);}
	.st5{opacity:0.38;fill:url(#SVGID_4_);enable-background:new    ;}
	.st6{fill:url(#SVGID_5_);}
	.st7{fill:url(#SVGID_6_);stroke:#74001D;stroke-width:5;stroke-miterlimit:10;}
</style>
<linearGradient id="SVGID_1_" gradientUnits="userSpaceOnUse" x1="740.485" y1="826.11" x2="740.485" y2="687.91" gradientTransform="matrix(1 0 0 1 -89.39 -597.67)">
	<stop  offset="0" style="stop-color:#D2EDCC"/>
	<stop  offset="0.51" style="stop-color:#75D3B8"/>
	<stop  offset="0.74" style="stop-color:#5ECBB1"/>
	<stop  offset="1" style="stop-color:#49C3AA"/>
</linearGradient>
<path class="st0" d="M85.3,242.5c0,0,232.8-134.7,512.4-77.1s619.2-68.4,619.2-68.4L1141,229.7l-377.2,32.2l-550.4,11.9L85.3,242.5z
	"/>
<path class="st1" d="M94.1,286.6c-1.6,3.1-4,4.6-7.3,4.6c-3.1,0-5.4-1.6-7-4.6L14.4,140.9c-0.4-1.3-0.7-2.3-0.7-3
	c0-1.5,0.4-3,1.2-4.3c0.8-1.3,1.9-2.3,3.5-3c0.7-0.4,1.8-0.7,3.3-0.7c3.3,0,5.6,1.6,7,4.6L87.1,265l58.7-130.4
	c1.3-3.1,3.7-4.6,7-4.6c0.7,0,1.7,0.2,3,0.7c1.5,0.7,2.7,1.7,3.5,3c0.8,1.3,1.2,2.8,1.2,4.3c0,0.7-0.2,1.7-0.7,3L94.1,286.6z"/>
<path class="st1" d="M328.7,220.2c0,13.3-3.1,25.3-9.3,36.2c-6.2,10.8-14.7,19.4-25.4,25.6c-10.7,6.2-22.7,9.3-36,9.3
	c-13.3,0-25.3-3.1-36.2-9.3c-10.8-6.2-19.4-14.7-25.6-25.6c-6.2-10.8-9.3-22.9-9.3-36.2v-82.6c0-2.2,0.7-4,2.2-5.5
	c1.4-1.4,3.3-2.2,5.5-2.2c2.2,0,4.1,0.7,5.6,2.2c1.5,1.4,2.3,3.3,2.3,5.5v82.6c0,10.4,2.4,19.8,7.3,28.2c4.9,8.4,11.5,15,19.9,19.9
	c8.4,4.9,17.8,7.3,28.2,7.3c10.4,0,19.8-2.4,28.2-7.3c8.4-4.9,15-11.5,19.9-19.9c4.9-8.4,7.3-17.8,7.3-28.2v-82.6
	c0-2.2,0.7-4,2.2-5.5c1.4-1.4,3.3-2.2,5.5-2.2c2.2,0,4,0.7,5.5,2.2c1.4,1.4,2.2,3.3,2.2,5.5V220.2z"/>
<path class="st1" d="M500.3,255.4c-6.4,10.2-15.9,18.7-28.4,25.6c-12.5,6.9-24.9,10.3-37.3,10.3c-15,0-28.6-3.5-40.7-10.6
	c-12.1-7.1-21.5-16.8-28.4-29.2c-6.9-12.4-10.3-26.2-10.3-41.5c0-15,3.3-28.7,10-40.8c6.6-12.2,15.8-21.7,27.5-28.7
	c11.7-7,24.8-10.5,39.2-10.5c14.4,0,27.4,3.4,39,10.1c11.6,6.8,20.7,16,27.4,27.7c6.6,11.7,10,24.9,10,39.5c0,2.2-0.7,4-2.2,5.5
	c-1.4,1.4-3.3,2.2-5.5,2.2h-99.6c-2.2,0-4-0.7-5.5-2.2c-1.4-1.4-2.2-3.3-2.2-5.5c0-2.2,0.7-4.1,2.2-5.6c1.4-1.5,3.3-2.3,5.5-2.3
	h91.3c-1.1-10.2-4.5-19.4-10.1-27.5c-5.6-8.2-12.9-14.7-21.7-19.4c-8.9-4.8-18.4-7.1-28.5-7.1c-11.5,0-21.9,2.8-31.2,8.5
	c-9.3,5.6-16.6,13.4-21.9,23.2c-5.3,9.8-8,20.9-8,33c0,12.4,2.8,23.6,8.3,33.7c5.5,10.1,13.2,18,22.9,23.7
	c9.7,5.8,20.6,8.6,32.5,8.6c9.7,0,19.6-2.8,29.7-8.3c10.1-5.5,17.8-12.5,23.1-20.9c1.3-2.4,3.4-3.7,6.3-3.7c1.8,0,3.2,0.4,4.3,1.3
	c2.4,1.3,3.7,3.5,3.7,6.6C501.7,252.9,501.2,254.3,500.3,255.4z"/>
<path class="st1" d="M648,244.1c0,11.9-4.1,21.9-12.4,29.9c-8.3,8-18.6,11.9-31,11.9h-56.4c-2.2,0-4-0.7-5.5-2.2
	c-1.4-1.4-2.2-3.3-2.2-5.5c0-2.2,0.7-4,2.2-5.5c1.4-1.4,3.3-2.2,5.5-2.2h56.4c8.2,0,14.9-2.5,20.2-7.5c5.3-5,8-11.3,8-19.1
	c0-7.7-2.7-14.1-8-19.1c-5.3-5-12.1-7.5-20.2-7.5h-26.2c-12.2,0-22.5-3.9-30.9-11.8c-8.4-7.9-12.6-17.6-12.6-29.4
	c0-11.9,4.2-21.8,12.6-29.5c8.4-7.7,18.7-11.6,30.9-11.6h54.4c2.2,0,4,0.7,5.5,2.2c1.4,1.4,2.2,3.3,2.2,5.5c0,2.2-0.7,4-2.2,5.5
	c-1.4,1.4-3.3,2.2-5.5,2.2h-54.4c-8,0-14.7,2.4-20.1,7.1c-5.4,4.8-8.1,11-8.1,18.8c0,7.5,2.7,13.7,8.1,18.6
	c5.4,4.9,12.1,7.3,20.1,7.3h26.2c12.4,0,22.7,4,31,11.9C643.9,222.2,648,232.2,648,244.1z"/>
<path class="st1" d="M682.2,291.2c-2.2,0-4-0.8-5.5-2.3c-1.4-1.5-2.2-3.3-2.2-5.3V57.9c0-2,0.7-3.8,2.2-5.3c1.4-1.5,3.3-2.3,5.5-2.3
	c2.2,0,4,0.8,5.5,2.3c1.4,1.6,2.2,3.3,2.2,5.3v107.5c6.2-9.7,14-17.1,23.4-22.2c9.4-5.1,19.6-7.6,30.7-7.6c12.6,0,24.2,3.1,34.8,9.3
	c10.6,6.2,19,14.6,25.2,25.2c6.2,10.6,9.3,22.2,9.3,34.8v78.7c0,2-0.7,3.8-2.2,5.3c-1.4,1.5-3.3,2.3-5.5,2.3c-2.2,0-4-0.8-5.5-2.3
	c-1.4-1.5-2.2-3.3-2.2-5.3v-78.7c0-9.7-2.4-18.7-7.3-26.9c-4.9-8.2-11.5-14.7-19.7-19.6c-8.3-4.9-17.3-7.3-27.1-7.3
	c-9.7,0-18.8,2.4-27,7.3c-8.3,4.9-14.9,11.4-19.7,19.6c-4.9,8.2-7.3,17.2-7.3,26.9v78.7c0,2-0.7,3.8-2.2,5.3
	C686.2,290.5,684.4,291.2,682.2,291.2z"/>
<path class="st1" d="M923.2,281.3c0,2.2-0.8,4.1-2.3,5.6c-1.6,1.5-3.3,2.3-5.3,2.3H882c-2.2,0-4-0.8-5.5-2.3
	c-1.4-1.6-2.2-3.4-2.2-5.6V159.8c-5.1,5.3-9.8,10-14.3,13.9c-4.4,4-9.3,7.6-14.6,11c-1.1,0.9-2.5,1.3-4.3,1.3
	c-2.7,0-4.9-1.2-6.6-3.7c-0.9-1.1-1.3-2.5-1.3-4.3c0-2.9,1.2-5,3.7-6.3c7.3-4.6,13.8-9.8,19.6-15.4c5.8-5.6,10.3-10.7,13.8-15.3
	c3.4-4.5,5.1-7,5.1-7.5c1.8-2.4,4-3.7,6.6-3.7c1.1,0,1.9,0.1,2.3,0.3c1.5,0.4,2.8,1.3,3.8,2.7c1,1.3,1.5,2.9,1.5,4.6v136.1h25.9
	c2,0,3.8,0.8,5.3,2.3C922.4,277.5,923.2,279.3,923.2,281.3z"/>
<path class="st1" d="M1086.5,283.6c0,2.2-0.8,4-2.3,5.5c-1.6,1.4-3.4,2.2-5.6,2.2c-2.2,0-4-0.7-5.5-2.2c-1.4-1.4-2.2-3.3-2.2-5.5
	v-82.3c0-10.2-2.5-19.5-7.6-28c-5.1-8.5-11.9-15.3-20.4-20.4c-8.5-5.1-17.9-7.6-28-7.6c-10.2,0-19.6,2.5-28.2,7.6
	c-8.6,5.1-15.5,11.9-20.6,20.4c-5.1,8.5-7.6,17.9-7.6,28v82.3c0,2.2-0.7,4-2.2,5.5c-1.4,1.4-3.3,2.2-5.5,2.2c-2.2,0-4-0.7-5.5-2.2
	c-1.4-1.4-2.2-3.3-2.2-5.5v-82.3c0-12.8,3.2-24.7,9.6-35.7c6.4-11,15.1-19.6,26.1-26.1c11-6.4,23-9.6,36-9.6c13.1,0,25.1,3.2,36,9.6
	c11,6.4,19.6,15.1,26.1,26.1c6.4,11,9.6,22.8,9.6,35.7V283.6z"/>
<path class="st1" d="M1189.3,262.4c0,3.3-1.4,5.6-4.3,7c-1.1,0.7-2.2,1-3.3,1c-3.3,0-5.6-1.5-7-4.6L1114,141.2c-0.7-1.1-1-2.3-1-3.7
	c0-1.3,0.4-2.7,1.2-4c0.8-1.3,1.9-2.3,3.5-3c1.3-0.4,2.3-0.7,3-0.7c1.5,0,3,0.4,4.3,1.2c1.3,0.8,2.3,1.8,3,3.2l60.7,124.8
	C1189.1,260.4,1189.3,261.5,1189.3,262.4z M1133.2,364.3c-1.3,0.4-2.3,0.7-3,0.7c-1.6,0-3-0.4-4.3-1.3c-1.3-0.9-2.3-2.1-3-3.7
	c-0.7-2-0.6-3.9,0.3-5.8c0.9-1.9,2.2-3.3,4-4.1c12.8-5.1,24.2-12.5,34.2-22.2c10-9.7,17.7-20.9,23.2-33.5l69-159.6
	c1.3-3.1,3.7-4.6,7-4.6c0.9,0,2,0.2,3.3,0.7c3.1,1.3,4.6,3.7,4.6,7c0,0.9-0.2,2-0.7,3.3l-69,159.3c-6.4,14.6-15.3,27.5-26.7,38.7
	C1160.8,350,1147.9,358.5,1133.2,364.3z"/>
<path class="st2" d="M93.6,286.6c-1.6,3.1-4,4.6-7.3,4.6c-3.1,0-5.4-1.6-7-4.6L13.9,140.9c-0.4-1.3-0.7-2.3-0.7-3
	c0-1.5,0.4-3,1.2-4.3c0.8-1.3,1.9-2.3,3.5-3c0.7-0.4,1.8-0.7,3.3-0.7c3.3,0,5.6,1.6,7,4.6L86.6,265l58.7-130.4
	c1.3-3.1,3.7-4.6,7-4.6c0.7,0,1.7,0.2,3,0.7c1.5,0.7,2.7,1.7,3.5,3c0.8,1.3,1.2,2.8,1.2,4.3c0,0.7-0.2,1.7-0.7,3L93.6,286.6z"/>
<path class="st2" d="M328.2,220.2c0,13.3-3.1,25.3-9.3,36.2c-6.2,10.8-14.7,19.4-25.4,25.6c-10.7,6.2-22.7,9.3-36,9.3
	c-13.3,0-25.3-3.1-36.2-9.3c-10.8-6.2-19.4-14.7-25.6-25.6c-6.2-10.8-9.3-22.9-9.3-36.2v-82.6c0-2.2,0.7-4,2.2-5.5
	c1.4-1.4,3.3-2.2,5.5-2.2c2.2,0,4.1,0.7,5.6,2.2c1.5,1.4,2.3,3.3,2.3,5.5v82.6c0,10.4,2.4,19.8,7.3,28.2c4.9,8.4,11.5,15,19.9,19.9
	c8.4,4.9,17.8,7.3,28.2,7.3c10.4,0,19.8-2.4,28.2-7.3c8.4-4.9,15-11.5,19.9-19.9c4.9-8.4,7.3-17.8,7.3-28.2v-82.6
	c0-2.2,0.7-4,2.2-5.5c1.4-1.4,3.3-2.2,5.5-2.2c2.2,0,4,0.7,5.5,2.2c1.4,1.4,2.2,3.3,2.2,5.5V220.2z"/>
<path class="st2" d="M499.8,255.4c-6.4,10.2-15.9,18.7-28.4,25.6c-12.5,6.9-24.9,10.3-37.3,10.3c-15,0-28.6-3.5-40.7-10.6
	c-12.1-7.1-21.5-16.8-28.4-29.2c-6.9-12.4-10.3-26.2-10.3-41.5c0-15,3.3-28.7,10-40.8c6.6-12.2,15.8-21.7,27.5-28.7
	c11.7-7,24.8-10.5,39.2-10.5c14.4,0,27.4,3.4,39,10.1c11.6,6.8,20.7,16,27.4,27.7c6.6,11.7,10,24.9,10,39.5c0,2.2-0.7,4-2.2,5.5
	c-1.4,1.4-3.3,2.2-5.5,2.2h-99.6c-2.2,0-4-0.7-5.5-2.2c-1.4-1.4-2.2-3.3-2.2-5.5c0-2.2,0.7-4.1,2.2-5.6c1.4-1.5,3.3-2.3,5.5-2.3
	h91.3c-1.1-10.2-4.5-19.4-10.1-27.5c-5.6-8.2-12.9-14.7-21.7-19.4c-8.9-4.8-18.4-7.1-28.5-7.1c-11.5,0-21.9,2.8-31.2,8.5
	c-9.3,5.6-16.6,13.4-21.9,23.2c-5.3,9.8-8,20.9-8,33c0,12.4,2.8,23.6,8.3,33.7c5.5,10.1,13.2,18,22.9,23.7
	c9.7,5.8,20.6,8.6,32.5,8.6c9.7,0,19.6-2.8,29.7-8.3c10.1-5.5,17.8-12.5,23.1-20.9c1.3-2.4,3.4-3.7,6.3-3.7c1.8,0,3.2,0.4,4.3,1.3
	c2.4,1.3,3.7,3.5,3.7,6.6C501.2,252.9,500.7,254.3,499.8,255.4z"/>
<path class="st2" d="M647.5,244.1c0,11.9-4.1,21.9-12.4,29.9c-8.3,8-18.6,11.9-31,11.9h-56.4c-2.2,0-4-0.7-5.5-2.2
	c-1.4-1.4-2.2-3.3-2.2-5.5c0-2.2,0.7-4,2.2-5.5c1.4-1.4,3.3-2.2,5.5-2.2H604c8.2,0,14.9-2.5,20.2-7.5c5.3-5,8-11.3,8-19.1
	c0-7.7-2.7-14.1-8-19.1c-5.3-5-12.1-7.5-20.2-7.5h-26.2c-12.2,0-22.5-3.9-30.9-11.8c-8.4-7.9-12.6-17.6-12.6-29.4
	c0-11.9,4.2-21.8,12.6-29.5c8.4-7.7,18.7-11.6,30.9-11.6h54.4c2.2,0,4,0.7,5.5,2.2c1.4,1.4,2.2,3.3,2.2,5.5c0,2.2-0.7,4-2.2,5.5
	c-1.4,1.4-3.3,2.2-5.5,2.2h-54.4c-8,0-14.7,2.4-20.1,7.1c-5.4,4.8-8.1,11-8.1,18.8c0,7.5,2.7,13.7,8.1,18.6
	c5.4,4.9,12.1,7.3,20.1,7.3H604c12.4,0,22.7,4,31,11.9C643.4,222.2,647.5,232.2,647.5,244.1z"/>
<path class="st2" d="M681.7,291.2c-2.2,0-4-0.8-5.5-2.3c-1.4-1.5-2.2-3.3-2.2-5.3V57.9c0-2,0.7-3.8,2.2-5.3c1.4-1.5,3.3-2.3,5.5-2.3
	c2.2,0,4,0.8,5.5,2.3c1.4,1.6,2.2,3.3,2.2,5.3v107.5c6.2-9.7,14-17.1,23.4-22.2c9.4-5.1,19.6-7.6,30.7-7.6c12.6,0,24.2,3.1,34.8,9.3
	c10.6,6.2,19,14.6,25.2,25.2c6.2,10.6,9.3,22.2,9.3,34.8v78.7c0,2-0.7,3.8-2.2,5.3c-1.4,1.5-3.3,2.3-5.5,2.3c-2.2,0-4-0.8-5.5-2.3
	c-1.4-1.5-2.2-3.3-2.2-5.3v-78.7c0-9.7-2.4-18.7-7.3-26.9c-4.9-8.2-11.5-14.7-19.7-19.6c-8.3-4.9-17.3-7.3-27.1-7.3
	c-9.7,0-18.8,2.4-27,7.3c-8.3,4.9-14.9,11.4-19.7,19.6c-4.9,8.2-7.3,17.2-7.3,26.9v78.7c0,2-0.7,3.8-2.2,5.3
	C685.7,290.5,683.9,291.2,681.7,291.2z"/>
<path class="st2" d="M922.7,281.3c0,2.2-0.8,4.1-2.3,5.6c-1.6,1.5-3.3,2.3-5.3,2.3h-33.5c-2.2,0-4-0.8-5.5-2.3
	c-1.4-1.6-2.2-3.4-2.2-5.6V159.8c-5.1,5.3-9.8,10-14.3,13.9c-4.4,4-9.3,7.6-14.6,11c-1.1,0.9-2.5,1.3-4.3,1.3
	c-2.7,0-4.9-1.2-6.6-3.7c-0.9-1.1-1.3-2.5-1.3-4.3c0-2.9,1.2-5,3.7-6.3c7.3-4.6,13.8-9.8,19.6-15.4c5.8-5.6,13.6-34.8,17.1-39.3
	c3.4-4.5,1.9,17,1.9,16.6c1.8-2.4,4-3.7,6.6-3.7c1.1,0,1.9,0.1,2.3,0.3c1.5,0.4-4.6,3.7-3.6,5c1,1.3,15.8,3.3,15.8,5l4.7,133.5
	l14.2-0.1c2,0,3.8,0.8,5.3,2.3C921.9,277.5,922.7,279.3,922.7,281.3z"/>
<path class="st2" d="M1086,283.6c0,2.2-0.8,4-2.3,5.5c-1.6,1.4-3.4,2.2-5.6,2.2c-2.2,0-4-0.7-5.5-2.2c-1.4-1.4-2.2-3.3-2.2-5.5
	v-82.3c0-10.2-2.5-19.5-7.6-28c-5.1-8.5-11.9-15.3-20.4-20.4c-8.5-5.1-17.9-7.6-28-7.6c-10.2,0-19.6,2.5-28.2,7.6
	c-8.6,5.1-15.5,11.9-20.6,20.4c-5.1,8.5-7.6,17.9-7.6,28v82.3c0,2.2-0.7,4-2.2,5.5c-1.4,1.4-3.3,2.2-5.5,2.2c-2.2,0-4-0.7-5.5-2.2
	c-1.4-1.4-2.2-3.3-2.2-5.5v-82.3c0-12.8,3.2-24.7,9.6-35.7c6.4-11,15.1-19.6,26.1-26.1c11-6.4,23-9.6,36-9.6c13.1,0,25.1,3.2,36,9.6
	c11,6.4,19.6,15.1,26.1,26.1c6.4,11,9.6,22.8,9.6,35.7V283.6z"/>
<path class="st2" d="M1188.8,262.4c0,3.3-1.4,5.6-4.3,7c-1.1,0.7-2.2,1-3.3,1c-3.3,0-5.6-1.5-7-4.6l-60.7-124.5
	c-0.7-1.1-1-2.3-1-3.7c0-1.3,0.4-2.7,1.2-4c0.8-1.3,1.9-2.3,3.5-3c1.3-0.4,2.3-0.7,3-0.7c1.5,0,3,0.4,4.3,1.2c1.3,0.8,2.3,1.8,3,3.2
	l60.7,124.8C1188.6,260.4,1188.8,261.5,1188.8,262.4z M1132.7,364.3c-1.3,0.4-2.3,0.7-3,0.7c-1.6,0-3-0.4-4.3-1.3
	c-1.3-0.9-2.3-2.1-3-3.7c-0.7-2-0.6-3.9,0.3-5.8c0.9-1.9,2.2-3.3,4-4.1c12.8-5.1,24.2-12.5,34.2-22.2c10-9.7,17.7-20.9,23.2-33.5
	l69-159.6c1.3-3.1,3.7-4.6,7-4.6c0.9,0,2,0.2,3.3,0.7c3.1,1.3,4.6,3.7,4.6,7c0,0.9-0.2,2-0.7,3.3l-69,159.3
	c-6.4,14.6-15.3,27.5-26.7,38.7C1160.3,350,1147.4,358.5,1132.7,364.3z"/>
<linearGradient id="SVGID_2_" gradientUnits="userSpaceOnUse" x1="-472.0397" y1="-2635.3687" x2="-473.0998" y2="-2536.5288" gradientTransform="matrix(-0.97 0.97 -0.71 -0.71 -1685.13 -1237.2301)">
	<stop  offset="0" style="stop-color:#CAE682"/>
	<stop  offset="0.24" style="stop-color:#92C199"/>
	<stop  offset="0.49" style="stop-color:#5B9DAF"/>
	<stop  offset="0.62" style="stop-color:#468FB8"/>
	<stop  offset="0.68" style="stop-color:#4289B1;stop-opacity:0.85"/>
	<stop  offset="0.76" style="stop-color:#38799D;stop-opacity:0.63"/>
	<stop  offset="0.86" style="stop-color:#275E7C;stop-opacity:0.36"/>
	<stop  offset="0.98" style="stop-color:#103A4F;stop-opacity:6.000000e-02"/>
	<stop  offset="1" style="stop-color:#0B3144;stop-opacity:0"/>
</linearGradient>
<path class="st3" d="M555.9,86.7l85.2,80c1.3,1.3,0.9,3.7-0.9,5.5l0,0c-1.7,1.7-4.2,2.1-5.5,0.9l-80.1-85.1
	C553.3,86.7,554.6,85.4,555.9,86.7z"/>
<linearGradient id="SVGID_3_" gradientUnits="userSpaceOnUse" x1="-415.3687" y1="-2552.0703" x2="-416.2086" y2="-2464.3003" gradientTransform="matrix(-0.71 0.71 -0.71 -0.71 -1537.9301 -1384.4301)">
	<stop  offset="0" style="stop-color:#CAE682"/>
	<stop  offset="0.24" style="stop-color:#92C199"/>
	<stop  offset="0.49" style="stop-color:#5B9DAF"/>
	<stop  offset="0.62" style="stop-color:#468FB8"/>
	<stop  offset="0.65" style="stop-color:#4289B1;stop-opacity:0.87"/>
	<stop  offset="0.69" style="stop-color:#38799D;stop-opacity:0.67"/>
	<stop  offset="0.74" style="stop-color:#275E7C;stop-opacity:0.43"/>
	<stop  offset="0.8" style="stop-color:#103A4F;stop-opacity:0.16"/>
	<stop  offset="0.81" style="stop-color:#0B3144;stop-opacity:0.1"/>
</linearGradient>
<path class="st4" d="M482.3,45l80.5,76.9c1.2,1.2,1.2,3.2,0,4.4l0,0c-1.2,1.2-3.2,1.2-4.4,0l-77-80.4
	C480.2,44.7,481.1,43.8,482.3,45z"/>
<linearGradient id="SVGID_4_" gradientUnits="userSpaceOnUse" x1="-524.7978" y1="-2675.6802" x2="-525.8678" y2="-2576.8501" gradientTransform="matrix(-0.97 0.97 -0.71 -0.71 -1685.13 -1237.2301)">
	<stop  offset="0" style="stop-color:#CAE682"/>
	<stop  offset="0.24" style="stop-color:#92C199"/>
	<stop  offset="0.49" style="stop-color:#5B9DAF"/>
	<stop  offset="0.62" style="stop-color:#468FB8"/>
	<stop  offset="0.68" style="stop-color:#4289B1;stop-opacity:0.85"/>
	<stop  offset="0.76" style="stop-color:#38799D;stop-opacity:0.63"/>
	<stop  offset="0.86" style="stop-color:#275E7C;stop-opacity:0.36"/>
	<stop  offset="0.98" style="stop-color:#103A4F;stop-opacity:6.000000e-02"/>
	<stop  offset="1" style="stop-color:#0B3144;stop-opacity:0"/>
</linearGradient>
<path class="st5" d="M635.6,64l85.1,80c1.3,1.3,0.9,3.7-0.9,5.5l0,0c-1.7,1.7-4.2,2.1-5.5,0.9l-80.1-85C633,64,634.3,62.8,635.6,64z
	"/>
<linearGradient id="SVGID_5_" gradientUnits="userSpaceOnUse" x1="-241.5468" y1="-2597.3567" x2="-242.3868" y2="-2509.5867" gradientTransform="matrix(-0.71 0.71 -0.71 -0.71 -1537.9301 -1384.4301)">
	<stop  offset="0" style="stop-color:#CAE682"/>
	<stop  offset="0.24" style="stop-color:#92C199"/>
	<stop  offset="0.49" style="stop-color:#5B9DAF"/>
	<stop  offset="0.62" style="stop-color:#468FB8"/>
	<stop  offset="0.65" style="stop-color:#4289B1;stop-opacity:0.87"/>
	<stop  offset="0.69" style="stop-color:#38799D;stop-opacity:0.67"/>
	<stop  offset="0.74" style="stop-color:#275E7C;stop-opacity:0.43"/>
	<stop  offset="0.8" style="stop-color:#103A4F;stop-opacity:0.16"/>
	<stop  offset="0.81" style="stop-color:#0B3144;stop-opacity:0.1"/>
</linearGradient>
<path class="st6" d="M390.9,200.4l80.5,77c1.2,1.2,1.2,3.2,0,4.4l0,0c-1.2,1.2-3.2,1.2-4.4,0l-77-80.4
	C388.8,200.1,389.7,199.2,390.9,200.4z"/>
<linearGradient id="SVGID_6_" gradientUnits="userSpaceOnUse" x1="1209.213" y1="186.1326" x2="1209.7992" y2="186.1326" gradientTransform="matrix(-0.4108 0 0 0.4108 1238.906 50.7535)">
	<stop  offset="0" style="stop-color:#FFFFFF"/>
	<stop  offset="1" style="stop-color:#000000"/>
</linearGradient>
<circle class="st7" cx="880.3" cy="127.2" r="20.5"/>
</svg>
